<svg width="58" height="56" viewBox="0 0 58 56" fill="none" xmlns="http://www.w3.org/2000/svg">
<path d="M25.9676 0.571687C12.831 1.99958 2.26463 12.566 0.836737 25.417C-0.591156 38.8392 7.11946 50.8335 18.8282 55.4028C19.6849 55.6884 20.5417 55.1172 20.5417 53.9749V49.4056C20.5417 49.4056 19.3993 49.6912 17.9715 49.6912C13.9734 49.6912 12.2599 46.2643 11.9743 44.2652C11.6887 43.1229 11.1176 42.2662 10.2608 41.4094C9.40409 41.1238 9.11851 41.1238 9.11851 40.8383C9.11851 40.2671 9.97525 40.2671 10.2608 40.2671C11.9743 40.2671 13.4022 42.2662 13.9733 43.1229C15.4012 45.4075 17.1147 45.9787 17.9715 45.9787C19.1138 45.9787 19.9705 45.6931 20.5417 45.4075C20.8272 43.4085 21.684 41.4094 23.3974 40.2671C16.8291 38.8392 11.9743 35.1267 11.9743 28.844C11.9743 25.7026 13.4022 22.5612 15.4012 20.2766C15.1157 19.7055 14.8301 18.2776 14.8301 16.2785C14.8301 15.1362 14.8301 13.4227 15.6868 11.7093C15.6868 11.7093 19.6849 11.7093 23.683 15.4218C25.1109 14.8506 27.11 14.565 29.109 14.565C31.1081 14.565 33.1071 14.8506 34.8206 15.4218C38.5331 11.7093 42.8168 11.7093 42.8168 11.7093C43.3879 13.4227 43.3879 15.1362 43.3879 16.2785C43.3879 18.5631 43.1024 19.7055 42.8168 20.2766C44.8158 22.5612 46.2437 25.417 46.2437 28.844C46.2437 35.1267 41.3889 38.8392 34.8206 40.2671C36.5341 41.695 37.6764 44.2652 37.6764 46.8354V54.2605C37.6764 55.1172 38.5331 55.9739 39.6754 55.6883C50.2418 51.4047 57.6669 41.1238 57.6669 29.1295C57.6669 11.9948 43.1024 -1.42736 25.9676 0.571687Z" fill="#00A3D9"/>
</svg>
