<svg width="58" height="58" viewBox="0 0 58 58" fill="none" xmlns="http://www.w3.org/2000/svg">
<path d="M16.3008 0.145508C7.5703 0.145508 0.467468 7.24834 0.467468 15.9788L0.467468 41.3122C0.467468 50.0427 7.5703 57.1455 16.3008 57.1455L41.6341 57.1455C50.3646 57.1455 57.4675 50.0427 57.4675 41.3122L57.4675 15.9788C57.4675 7.24834 50.3646 0.145508 41.6341 0.145508L16.3008 0.145508ZM16.3008 6.47884L41.6341 6.47884C46.8718 6.47884 51.1341 10.7412 51.1341 15.9788L51.1341 41.3122C51.1341 46.5498 46.8718 50.8122 41.6341 50.8122L16.3008 50.8122C11.0631 50.8122 6.8008 46.5498 6.8008 41.3122L6.8008 15.9788C6.8008 10.7412 11.0631 6.47884 16.3008 6.47884ZM44.8008 9.64551C43.9609 9.64551 43.1555 9.97914 42.5616 10.573C41.9678 11.1669 41.6341 11.9723 41.6341 12.8122C41.6341 13.652 41.9678 14.4575 42.5616 15.0513C43.1555 15.6452 43.9609 15.9788 44.8008 15.9788C45.6407 15.9788 46.4461 15.6452 47.04 15.0513C47.6338 14.4575 47.9675 13.652 47.9675 12.8122C47.9675 11.9723 47.6338 11.1669 47.04 10.573C46.4461 9.97914 45.6407 9.64551 44.8008 9.64551ZM28.9675 12.8122C20.237 12.8122 13.1341 19.915 13.1341 28.6455C13.1341 37.376 20.237 44.4788 28.9675 44.4788C37.698 44.4788 44.8008 37.376 44.8008 28.6455C44.8008 19.915 37.698 12.8122 28.9675 12.8122ZM28.9675 19.1455C34.2051 19.1455 38.4675 23.4078 38.4675 28.6455C38.4675 33.8832 34.2051 38.1455 28.9675 38.1455C23.7298 38.1455 19.4675 33.8832 19.4675 28.6455C19.4675 23.4078 23.7298 19.1455 28.9675 19.1455Z" fill="#00A3D9"/>
</svg>
