<svg width="100" height="100" viewBox="0 0 100 100" fill="none" xmlns="http://www.w3.org/2000/svg">
<path d="M16.4104 33.5961C13.2439 33.5945 10.6775 36.1672 10.6768 39.3312L10.6807 63.3437C10.6801 64.0972 10.8282 64.8433 11.1162 65.5395C11.4043 66.2357 11.8268 66.8683 12.3595 67.4011C12.8922 67.9339 13.5247 68.3564 14.2209 68.6446C14.917 68.9328 15.6632 69.0809 16.4166 69.0804C17.1699 69.0813 17.916 68.9334 18.6121 68.6454C19.3083 68.3574 19.9407 67.9349 20.4733 67.4021C21.0058 66.8692 21.428 66.2366 21.7156 65.5403C22.0032 64.844 22.1506 64.0979 22.1494 63.3445V39.3281C22.1478 37.8072 21.5424 36.3491 20.4662 35.2743C19.3901 34.1995 17.9313 33.5959 16.4104 33.5961ZM62.6549 12.032L66.6572 4.72342C66.7592 4.53802 66.7835 4.31975 66.7247 4.11648C66.666 3.9132 66.5291 3.74151 66.3439 3.63905C66.1585 3.53873 65.9408 3.51586 65.7385 3.57543C65.5363 3.635 65.3658 3.77218 65.2643 3.95701L61.2213 11.3422C57.8197 9.82811 54.0127 8.97967 49.9846 8.98358C45.9674 8.97967 42.1619 9.82576 38.7744 11.3312L34.7268 3.96483C34.6773 3.87288 34.6102 3.79164 34.5291 3.72584C34.4481 3.66003 34.3548 3.61095 34.2547 3.58145C34.1546 3.55195 34.0496 3.54261 33.9458 3.55397C33.8421 3.56533 33.7416 3.59717 33.6502 3.64764C33.5579 3.69695 33.4764 3.76416 33.4105 3.84534C33.3445 3.92652 33.2954 4.02004 33.266 4.12043C33.2366 4.22082 33.2275 4.32606 33.2393 4.43C33.2511 4.53394 33.2835 4.63449 33.3346 4.72576L37.3385 12.0297C29.4713 16.0867 24.1557 23.8133 24.1604 32.6844L75.815 32.6781C75.8166 23.8101 70.5103 16.0992 62.6549 12.032ZM38.2361 23.3265C37.6617 23.3262 37.1109 23.0977 36.7049 22.6913C36.2989 22.2849 36.071 21.7338 36.0713 21.1594C36.0716 20.5849 36.3001 20.0341 36.7065 19.6281C37.113 19.2221 37.664 18.9942 38.2385 18.9945C38.813 18.9955 39.3637 19.2242 39.77 19.6304C40.1764 20.0365 40.4052 20.5872 40.4064 21.1617C40.4054 21.7365 40.1762 22.2873 39.7693 22.6933C39.3624 23.0992 38.8109 23.327 38.2361 23.3265ZM61.7564 23.3226C61.4721 23.3228 61.1904 23.267 60.9276 23.1583C60.6648 23.0496 60.4261 22.8901 60.2249 22.6891C60.0238 22.488 59.8643 22.2493 59.7555 21.9865C59.6467 21.7238 59.5907 21.4422 59.5908 21.1578C59.5939 20.5838 59.823 20.0342 60.2285 19.6279C60.634 19.2217 61.1833 18.9916 61.7572 18.9875C62.3307 18.9922 62.8792 19.2228 63.2839 19.6292C63.6885 20.0356 63.9167 20.5851 63.9189 21.1586C63.9193 21.4427 63.8635 21.7241 63.755 21.9867C63.6464 22.2493 63.4872 22.4879 63.2863 22.6889C63.0855 22.8899 62.847 23.0494 62.5845 23.1581C62.322 23.2668 62.0406 23.3227 61.7564 23.3226ZM24.3713 34.6797L24.3799 71.8945C24.379 72.6983 24.5366 73.4943 24.8438 74.237C25.151 74.9798 25.6016 75.6546 26.17 76.2229C26.7384 76.7912 27.4133 77.2418 28.1561 77.5489C28.8988 77.856 29.6949 78.0135 30.4986 78.0125L34.665 78.014L34.6697 90.7203C34.6689 93.8844 37.2408 96.4562 40.4002 96.4562C43.5689 96.4562 46.1361 93.882 46.1369 90.7164L46.1338 78.0133L53.8752 78.0109L53.8783 90.7164C53.8783 93.8781 56.451 96.4555 59.6111 96.4492C62.7799 96.4515 65.3486 93.8773 65.3478 90.7117L65.3439 78.0094L69.5252 78.0062C70.329 78.0063 71.125 77.8481 71.8677 77.5406C72.6104 77.2331 73.2852 76.7823 73.8537 76.214C74.4222 75.6456 74.8731 74.9709 75.1808 74.2283C75.4885 73.4857 75.647 72.6898 75.6471 71.8859L75.64 34.6711L24.3713 34.6797ZM89.3197 39.3226C89.3198 38.5695 89.1715 37.8238 88.8833 37.128C88.5951 36.4322 88.1727 35.8001 87.6401 35.2676C87.1075 34.7351 86.4752 34.3128 85.7793 34.0248C85.0835 33.7368 84.3377 33.5887 83.5846 33.589C80.4182 33.5859 77.8525 36.157 77.8525 39.325L77.8572 63.339C77.8567 64.0921 78.0047 64.8379 78.2926 65.5338C78.5806 66.2297 79.0029 66.8619 79.5354 67.3945C80.0679 67.927 80.7002 68.3493 81.3961 68.6372C82.0919 68.9252 82.8377 69.0732 83.5908 69.0726C84.344 69.0727 85.0899 68.9244 85.7857 68.6361C86.4815 68.3478 87.1137 67.9252 87.6461 67.3924C88.1786 66.8596 88.6007 66.2271 88.8886 65.5311C89.1764 64.8351 89.3242 64.0891 89.3236 63.3359L89.3197 39.3226Z" fill="#A4C439"/>
</svg>
