<svg width="100" height="100" viewBox="0 0 100 100" fill="none" xmlns="http://www.w3.org/2000/svg">
<path d="M14.6984 89.1586L6.84375 1.05627H93.1562L85.2938 89.1453L49.9477 98.9446L14.6984 89.1586Z" fill="#1572B6"/>
<path d="M50.001 91.4547L78.5627 83.536L85.2822 8.2594H50.001V91.4547Z" fill="#33A9DC"/>
<path d="M50.001 40.1789H64.2994L65.2869 29.1141H50.001V18.3086H77.0963L76.8369 21.2078L74.1807 50.9844H50.001V40.1789Z" fill="white"/>
<path d="M50.0647 68.2414L50.0171 68.2555L37.9835 65.0063L37.214 56.3883H26.3687L27.8819 73.3547L50.0155 79.4977L50.0647 79.4836V68.2414Z" fill="#EBEBEB"/>
<path d="M63.3805 50.5273L62.0789 64.9977L50.0273 68.2508V79.493L72.1789 73.3539L72.3414 71.5281L74.2211 50.5273H63.3805Z" fill="white"/>
<path d="M50.0374 18.3086V29.1141H23.9374L23.721 26.6859L23.2288 21.2078L22.9702 18.3086H50.0374ZM50.0007 40.1805V50.9859H38.1187L37.9022 48.5578L37.4093 43.0797L37.1515 40.1805H50.0007Z" fill="#EBEBEB"/>
</svg>
