<svg width="100" height="100" viewBox="0 0 100 100" fill="none" xmlns="http://www.w3.org/2000/svg">
<g clip-path="url(#clip0_48_676)">
<path d="M13.6514 80.6844L25.96 1.92343C26.0337 1.45274 26.2534 1.01709 26.5881 0.67804C26.9228 0.338986 27.3556 0.113655 27.8253 0.0338736C28.295 -0.0459076 28.7779 0.0238934 29.2058 0.233418C29.6337 0.442942 29.985 0.781599 30.21 1.20156L42.9396 24.9437L48.0131 15.2828C48.206 14.9164 48.4953 14.6096 48.8499 14.3955C49.2044 14.1815 49.6107 14.0684 50.0248 14.0684C50.4389 14.0684 50.8452 14.1815 51.1997 14.3955C51.5543 14.6096 51.8436 14.9164 52.0365 15.2828L86.3881 80.6844H13.6514Z" fill="#FFA000"/>
<path d="M56.174 50.0039L42.9334 24.932L13.6514 80.6843L56.174 50.0039Z" fill="#F57C00"/>
<path d="M86.3881 80.6844L76.9607 22.3469C76.8908 21.9358 76.7093 21.5517 76.4359 21.2368C76.1626 20.9218 75.8079 20.688 75.4107 20.5609C75.0136 20.4341 74.5892 20.419 74.184 20.5174C73.7788 20.6158 73.4086 20.8238 73.1139 21.1188L13.6514 80.6836L46.5537 99.1352C47.5698 99.7025 48.7142 100 49.8779 100C51.0417 100 52.1861 99.7025 53.2021 99.1352L86.3881 80.6844Z" fill="#FFCA28"/>
<path d="M76.961 22.3469C76.8911 21.9357 76.7096 21.5517 76.4362 21.2368C76.1629 20.9218 75.8082 20.688 75.411 20.5609C75.0139 20.4339 74.5896 20.4187 74.1844 20.517C73.7792 20.6152 73.409 20.8232 73.1142 21.118L61.3118 32.9515L52.0313 15.2828C51.8384 14.9163 51.5491 14.6095 51.1946 14.3955C50.84 14.1815 50.4338 14.0684 50.0196 14.0684C49.6055 14.0684 49.1992 14.1815 48.8447 14.3955C48.4902 14.6095 48.2008 14.9163 48.0079 15.2828L42.9345 24.943L30.2048 1.20155C29.9795 0.781013 29.6276 0.442003 29.199 0.232526C28.7704 0.0230496 28.2867 -0.0462774 27.8165 0.0343624C27.3465 0.114645 26.9136 0.340839 26.5793 0.68088C26.245 1.02092 26.0263 1.45756 25.954 1.92889L13.6517 80.6844H13.6118L13.6509 80.7297L13.9751 80.889L73.097 21.6984C73.3918 21.4023 73.7626 21.1931 74.1685 21.094C74.5745 20.9948 74.9999 21.0094 75.3981 21.1362C75.7963 21.2631 76.1518 21.4972 76.4256 21.8129C76.6994 22.1286 76.8809 22.5137 76.9501 22.9258L86.2977 80.7406L86.3884 80.6836L76.961 22.3469ZM13.7595 80.5765L25.9595 2.48592C26.032 2.01447 26.2509 1.57777 26.5853 1.23762C26.9197 0.897478 27.3526 0.671127 27.8228 0.590612C28.293 0.510162 28.7767 0.57966 29.2053 0.789269C29.6339 0.998878 29.9858 1.33798 30.211 1.75858L42.9392 25.5008L48.0134 15.8398C48.2063 15.4734 48.4956 15.1666 48.8502 14.9525C49.2047 14.7385 49.611 14.6254 50.0251 14.6254C50.4392 14.6254 50.8455 14.7385 51.2 14.9525C51.5546 15.1666 51.8439 15.4734 52.0368 15.8398L61.129 33.1328L13.7579 80.5765H13.7595Z" fill="white" fill-opacity="0.2"/>
<path opacity="0.2" d="M53.2022 98.5781C52.1862 99.1455 51.0418 99.4433 49.878 99.4433C48.7143 99.4433 47.5699 99.1455 46.5538 98.5781L13.7296 80.1797L13.6499 80.6852L46.5522 99.1305C47.5683 99.6978 48.7127 99.9957 49.8765 99.9957C51.0402 99.9957 52.1846 99.6978 53.2007 99.1305L86.3882 80.6852L86.3022 80.1617L53.2007 98.5797L53.2022 98.5781Z" fill="#A52714"/>
</g>
<defs>
<clipPath id="clip0_48_676">
<rect width="100" height="100" fill="white"/>
</clipPath>
</defs>
</svg>
