<svg width="100" height="100" viewBox="0 0 100 100" fill="none" xmlns="http://www.w3.org/2000/svg">
<g clip-path="url(#clip0_48_683)">
<path d="M97.4505 45.6078L54.3912 2.54995C51.9131 0.0702637 47.8912 0.0702637 45.4091 2.54995L36.4685 11.4921L47.8107 22.8343C50.4474 21.9445 53.4693 22.5414 55.5701 24.6421C57.6818 26.7562 58.274 29.8039 57.3623 32.4492L68.2935 43.3812C70.938 42.4695 73.9904 43.0585 76.1013 45.1742C79.0545 48.125 79.0545 52.9085 76.1013 55.8609C75.3996 56.563 74.5663 57.12 73.6492 57.5C72.7321 57.88 71.7491 58.0756 70.7564 58.0756C69.7637 58.0756 68.7807 57.88 67.8636 57.5C66.9465 57.12 66.1133 56.563 65.4115 55.8609C64.3571 54.8059 63.6384 53.4625 63.3457 51.9999C63.0531 50.5373 63.1997 49.0208 63.767 47.6414L53.5732 37.4476L53.5716 64.2765C54.3112 64.6407 54.9865 65.1231 55.5709 65.7046C58.5224 68.6554 58.5224 73.4375 55.5709 76.3945C52.6185 79.3453 47.8334 79.3453 44.8841 76.3945C41.9326 73.4382 41.9326 68.6562 44.8841 65.7046C45.5913 64.9964 46.4324 64.436 47.3584 64.0562V36.9789C46.4316 36.6001 45.5903 36.0393 44.8841 35.3296C42.6482 33.0953 42.1099 29.814 43.2568 27.0671L32.0748 15.8851L2.54977 45.4085C1.35861 46.6001 0.689453 48.2159 0.689453 49.9007C0.689453 51.5856 1.35861 53.2014 2.54977 54.3929L45.6099 97.4507C48.0896 99.9304 52.1099 99.9304 54.5935 97.4507L97.4513 54.5929C98.6422 53.401 99.3111 51.7851 99.311 50.1002C99.3108 48.4153 98.6417 46.7994 97.4505 45.6078Z" fill="#F34F29"/>
</g>
<defs>
<clipPath id="clip0_48_683">
<rect width="100" height="100" fill="white"/>
</clipPath>
</defs>
</svg>
