<svg width="100" height="100" viewBox="0 0 100 100" fill="none" xmlns="http://www.w3.org/2000/svg">
<path fill-rule="evenodd" clip-rule="evenodd" d="M8.71582 42.8351C8.52597 42.8351 8.4791 42.7398 8.57363 42.5984L9.56816 41.3195C9.66191 41.1773 9.89941 41.0828 10.0885 41.0828H26.9924C27.1822 41.0828 27.2291 41.225 27.1346 41.3672L26.3299 42.5984C26.2353 42.7398 25.9986 42.882 25.8564 42.882L8.71582 42.8351ZM1.56582 47.1906C1.37675 47.1906 1.3291 47.0969 1.42363 46.9539L2.41816 45.6758C2.51269 45.5336 2.74941 45.4391 2.93925 45.4391H24.5299C24.7189 45.4391 24.8143 45.5812 24.7666 45.7234L24.3877 46.8594C24.3408 47.0492 24.151 47.1437 23.9619 47.1437L1.56582 47.1906ZM13.0236 51.5469C12.8346 51.5469 12.7877 51.4047 12.8822 51.2625L13.5447 50.0789C13.64 49.9367 13.8291 49.7953 14.0189 49.7953H23.4877C23.6775 49.7953 23.7721 49.9367 23.7721 50.1266L23.6783 51.2625C23.6783 51.4523 23.4885 51.5945 23.3463 51.5945L13.0236 51.5469ZM62.1721 41.9828C59.1885 42.7406 57.1525 43.3086 54.2174 44.0656C53.5064 44.2555 53.4596 44.3023 52.8439 43.5922C52.1338 42.7875 51.6127 42.2664 50.6189 41.793C47.6353 40.3258 44.7471 40.7516 42.0486 42.5039C38.8291 44.5867 37.1721 47.6641 37.2189 51.4992C37.2658 55.2875 39.8705 58.4125 43.6111 58.9336C46.8307 59.3594 49.5299 58.2226 51.6603 55.8086C52.0861 55.2875 52.465 54.7195 52.9385 54.0562H43.8002C42.8064 54.0562 42.5697 53.4406 42.901 52.6359C43.5166 51.168 44.6525 48.7062 45.315 47.475C45.458 47.1906 45.7893 46.7172 46.4994 46.7172H63.7338C63.64 47.9961 63.64 49.2742 63.4502 50.5531C62.9291 53.9617 61.651 57.0867 59.5674 59.8328C56.158 64.3312 51.708 67.1242 46.0728 67.882C41.433 68.4976 37.1244 67.5976 33.3369 64.757C29.833 62.1055 27.8447 58.6015 27.3236 54.2461C26.708 49.0851 28.2228 44.4445 31.3478 40.3726C34.7096 35.9695 39.1603 33.1758 44.6057 32.1812C49.0564 31.3766 53.3174 31.8976 57.1525 34.5016C59.6619 36.1586 61.4611 38.4312 62.6447 41.1773C62.9291 41.6039 62.74 41.8406 62.1713 41.982L62.1721 41.9828Z" fill="#00ACD7"/>
<path d="M77.8439 68.1664C73.5353 68.0711 69.6048 66.8406 66.2908 63.9992C63.497 61.5852 61.7455 58.5071 61.1775 54.861C60.3252 49.511 61.7924 44.7758 65.0127 40.5625C68.4689 36.0164 72.6353 33.6492 78.2705 32.6547C83.0994 31.8031 87.6455 32.2766 91.7642 35.0695C95.5049 37.6266 97.8244 41.0828 98.44 45.6281C99.2447 52.0203 97.3986 57.2289 92.9947 61.6797C89.8697 64.8516 86.0345 66.8406 81.6314 67.7399C80.3533 67.9766 79.0744 68.0242 77.8439 68.1664ZM89.1127 49.0375C89.0658 48.4219 89.0658 47.9485 88.9705 47.475C88.1189 42.7875 83.8095 40.136 79.3119 41.1781C74.908 42.1719 72.0674 44.9656 71.0259 49.4164C70.1736 53.1094 71.9728 56.85 75.3814 58.3649C77.9861 59.5016 80.59 59.3594 83.0994 58.0813C86.84 56.1399 88.8759 53.1094 89.1127 49.0375Z" fill="#00ACD7"/>
</svg>
