<svg width="100" height="100" viewBox="0 0 100 100" fill="none" xmlns="http://www.w3.org/2000/svg">
<g clip-path="url(#clip0_25_470)">
<path d="M14.8726 84.9656L7.05615 -2.70239H92.9437L85.1187 84.9523L49.9476 94.7023L14.8726 84.9656Z" fill="#E44D26"/>
<path d="M50 87.25L78.4203 79.3703L85.107 4.46558H50V87.25Z" fill="#F16529"/>
<path d="M49.9998 36.9805H35.7717L34.7889 25.9696H49.9998V15.218H23.0381L23.2959 18.1024L25.9381 47.7329H49.9998V36.9805ZM49.9998 64.9047L49.9521 64.918L37.9779 61.6836L37.2131 53.1094H26.4186L27.9248 69.9915L49.9506 76.1055L49.9998 76.0922V64.9047Z" fill="#EBEBEB"/>
<path d="M49.9624 36.9805V47.7329H63.2022L61.9546 61.6774L49.9624 64.9141V76.1008L72.0054 69.9915L72.1671 68.1751L74.6937 39.868L74.9554 36.9805H72.0585H49.9624ZM49.9624 15.218V25.9696H75.9343L76.1499 23.554L76.6405 18.1024L76.8976 15.218H49.9624Z" fill="white"/>
</g>
<defs>
<clipPath id="clip0_25_470">
<rect width="100" height="100" fill="white"/>
</clipPath>
</defs>
</svg>
