<svg width="100" height="100" viewBox="0 0 100 100" fill="none" xmlns="http://www.w3.org/2000/svg">
<path d="M32.208 59.9828C32.0285 59.6705 31.9042 59.3296 31.8408 58.975C31.9111 59.3281 32.0361 59.6679 32.208 59.9828ZM32.6596 60.5398C32.833 60.7117 33.0283 60.8609 33.2447 60.9679C33.0285 60.8574 32.8315 60.7129 32.6611 60.5398H32.6596Z" fill="#083042"/>
<path d="M50.2672 79.6618H50.1578C49.0622 79.6663 47.9833 79.3932 47.0219 78.868L25.0047 66.5633C23.7055 65.8352 22.9062 64.4852 22.9062 63.0266V37.9906C22.9062 36.918 23.1008 35.8891 23.5547 34.9891L6.33904 25.4078C5.62576 26.9078 5.25858 28.6016 5.27967 30.3813V71.7305C5.29226 72.9264 5.6211 74.0977 6.2328 75.1255C6.8445 76.1532 7.71727 77.0007 8.76248 77.5821L45.0758 97.9039C46.6773 98.8039 48.4719 99.2328 50.2453 99.2328V99.2117C50.2883 96.618 50.2672 86.2203 50.2672 79.6618Z" fill="#083042"/>
<path d="M67.5468 39.5312L67.4163 39.339C67.3085 39.189 67.2015 39.0601 67.0936 38.9109C67.2015 39.039 67.3085 39.1898 67.4163 39.339C67.4695 39.3963 67.5135 39.4606 67.5468 39.5312ZM49.4233 29.5C49.5327 29.5 49.6194 29.4789 49.728 29.4789C49.6194 29.5 49.5108 29.5 49.4233 29.5Z" fill="#3DDB85"/>
<path d="M23.5326 34.9664C24.0158 33.9664 24.7836 33.1315 25.7396 32.5664L46.4584 20.4547C47.4074 19.8969 48.4859 19.5975 49.5866 19.5863C50.6873 19.5751 51.7717 19.8524 52.7318 20.3906L73.6678 32.1164C74.6074 32.6407 75.4141 33.3739 76.0256 34.2593L92.9607 24.25C91.9534 22.7999 90.6297 21.5978 89.0897 20.7343L54.5045 1.3781C52.9213 0.493568 51.1345 0.0381193 49.3211 0.0568932C47.5077 0.0756672 45.7307 0.568012 44.1662 1.48513L9.97246 21.4625C8.39423 22.3846 7.12858 23.7585 6.33887 25.407L23.5326 34.9664Z" fill="#3DDC84"/>
<path d="M32.2477 39.7907C32.2914 39.7047 32.3344 39.6188 32.3789 39.5563C32.3344 39.6414 32.2922 39.7047 32.2477 39.7907Z" fill="#3DDB85"/>
<path d="M92.939 24.25L76.0038 34.2594C76.6523 35.2023 77.0421 36.3164 77.0624 37.4539V61.2898C77.0755 62.3816 76.7981 63.4571 76.2586 64.4063C75.719 65.3555 74.9368 66.1441 73.9921 66.6914L53.2718 78.8047C52.3573 79.3383 51.3232 79.6331 50.2647 79.6617C50.2874 86.2 50.2874 96.5969 50.2437 99.1906V99.2117C52.0598 99.1917 53.8402 98.7042 55.4132 97.7961L89.6077 77.7969C92.7874 75.932 94.7343 72.5445 94.6905 68.8789V29.5445C94.6687 27.6367 94.0202 25.8148 92.939 24.25Z" fill="#4285F4"/>
<path d="M67.9397 58.7398C67.9179 58.7836 67.9179 58.8266 67.896 58.8711C67.9205 58.8313 67.9355 58.7864 67.9397 58.7398ZM67.7226 39.8125C67.678 39.7047 67.6132 39.6187 67.5483 39.5117C67.6132 39.6187 67.6788 39.7266 67.7226 39.8125ZM52.1929 69.2L66.078 61.0766L52.1929 69.2016V69.2ZM67.7655 59.2328C67.7218 59.3406 67.6569 59.4477 67.6124 59.5555C67.6569 59.4266 67.6999 59.3188 67.7655 59.2328Z" fill="#4285F4"/>
<path d="M32.1859 39.9828C32.0098 40.3992 31.9004 40.8409 31.8617 41.2914C31.8398 41.4617 31.8398 41.6336 31.8398 41.8273V58.6109C31.8398 58.739 31.8398 58.8468 31.8617 58.9758C31.9055 59.339 32.0352 59.6828 32.2289 59.9836C32.3594 60.1976 32.5102 60.3679 32.6625 60.5398C32.8359 60.7117 33.0297 60.8609 33.2453 60.9695L47.9969 69.2218C48.6386 69.5765 49.3605 69.7608 50.0937 69.757H50.2461C50.9338 69.7338 51.6041 69.5347 52.193 69.1789L66.0781 61.0547C66.1648 61.0117 66.2297 60.9469 66.3164 60.9047C66.468 60.7976 66.6195 60.6898 66.7492 60.5609C66.9523 60.3765 67.1406 60.1765 67.3109 59.9609C67.4187 59.8109 67.5273 59.6617 67.6141 59.5109C67.6781 59.4047 67.7227 59.2969 67.7648 59.189C67.8086 59.0836 67.8742 58.9539 67.9172 58.8258C67.9383 58.782 67.9383 58.739 67.9602 58.6969C68.0911 58.2806 68.1567 57.8465 68.1547 57.4101V41.4406C68.1547 41.1414 68.1109 40.8625 68.0469 40.5844C68.0039 40.3906 67.9375 40.2187 67.8734 40.0468L67.7437 39.7906C67.7008 39.6828 67.6344 39.5976 67.5703 39.4898L67.4406 39.2976C67.3328 39.1468 67.2242 39.0187 67.1164 38.8687C66.764 38.4582 66.3386 38.1165 65.8617 37.8609L51.8258 29.9953C51.5836 29.859 51.33 29.744 51.068 29.6515C50.7163 29.5443 50.353 29.4797 49.9859 29.4594H49.7047C49.5977 29.4594 49.5109 29.4594 49.4031 29.4797C49.1546 29.5018 48.9084 29.5449 48.6672 29.6086C48.6242 29.6297 48.5812 29.6297 48.5375 29.6523C48.2133 29.7383 47.9102 29.8875 47.607 30.0586L33.7219 38.1836C33.3182 38.4195 32.9651 38.7328 32.6828 39.1054C32.5758 39.2554 32.4672 39.4054 32.3805 39.5554C32.3375 39.6414 32.2945 39.7054 32.2508 39.7914L32.1859 39.9828Z" fill="#D6F0FF"/>
<path d="M50.2437 69.7562H50.0922C49.3586 69.7597 48.6363 69.5758 47.9937 69.2218L33.2437 60.9687C33.0319 60.8506 32.8356 60.7065 32.6594 60.5398C32.4903 60.3745 32.3447 60.1869 32.2266 59.982C32.047 59.6698 31.9227 59.3288 31.8594 58.9742C31.8367 58.8469 31.8367 58.739 31.8367 58.6109V41.8258C31.8367 41.6547 31.8367 41.4625 31.8594 41.2898C31.9008 40.8406 32.0094 40.3992 32.1836 39.982L28.2031 37.5609L23.5312 34.9672C23.0984 35.8672 22.8828 36.8953 22.8828 37.9679V63.0047C22.8957 63.7256 23.0959 64.4307 23.4636 65.0509C23.8314 65.6711 24.3541 66.185 24.9805 66.5422L46.9781 78.8672C47.936 79.4016 49.0173 79.6753 50.1141 79.6609H50.2234C50.2234 76.4664 50.2008 74.1945 50.2008 74.1945L50.2437 69.7562Z" fill="#083042"/>
<path d="M50.2437 69.7562H50.0922C49.3586 69.7597 48.6363 69.5758 47.9937 69.2218L33.2437 60.9687C33.0319 60.8506 32.8356 60.7065 32.6594 60.5398C32.4903 60.3745 32.3447 60.1869 32.2266 59.982C32.047 59.6698 31.9227 59.3288 31.8594 58.9742C31.8367 58.8469 31.8367 58.739 31.8367 58.6109V41.8258C31.8367 41.6547 31.8367 41.4625 31.8594 41.2898C31.9008 40.8406 32.0094 40.3992 32.1836 39.982L28.2031 37.5609L23.5312 34.9672C23.0984 35.8672 22.8828 36.8953 22.8828 37.9679V63.0047C22.8957 63.7256 23.0959 64.4307 23.4636 65.0509C23.8314 65.6711 24.3541 66.185 24.9805 66.5422L46.9781 78.8672C47.936 79.4016 49.0173 79.6753 50.1141 79.6609H50.2234C50.2234 76.4664 50.2008 74.1945 50.2008 74.1945L50.2437 69.7562Z" fill="#041619"/>
<path d="M73.6452 32.1164L52.7085 20.3898C51.7483 19.8519 50.664 19.5749 49.5635 19.5863C48.463 19.5977 47.3847 19.8971 46.4358 20.4547L25.7171 32.5672C24.7556 33.1261 23.9859 33.9631 23.5093 34.968L28.2046 37.5617L32.1835 39.9828L32.2476 39.7906C32.2913 39.7039 32.3343 39.6187 32.3772 39.5547C32.464 39.4047 32.5726 39.2547 32.6804 39.1047C32.9616 38.7398 33.3077 38.4406 33.7194 38.1828L47.6038 30.0578C47.9007 29.8914 48.2108 29.7555 48.5343 29.6516C48.578 29.6305 48.621 29.6305 48.664 29.6078C48.9046 29.5422 49.1507 29.5 49.3991 29.4797C49.5069 29.4797 49.5937 29.4578 49.7022 29.4578H49.9835C50.3499 29.4812 50.7124 29.5445 51.0647 29.65C51.3304 29.7344 51.5843 29.8492 51.8218 29.9945L65.8577 37.8617C66.3315 38.1223 66.7565 38.463 67.114 38.8687C67.221 38.9969 67.3304 39.1476 67.4374 39.2969L67.5679 39.4891L71.1577 37.1109L76.0241 34.2172C75.3968 33.3805 74.5968 32.6305 73.6452 32.1164Z" fill="#3DDB85"/>
<path d="M73.6452 32.1164L52.7085 20.3898C51.7483 19.8519 50.664 19.5749 49.5635 19.5863C48.463 19.5977 47.3847 19.8971 46.4358 20.4547L25.7171 32.5672C24.7556 33.1261 23.9859 33.9631 23.5093 34.968L28.2046 37.5617L32.1835 39.9828L32.2476 39.7906C32.2913 39.7039 32.3343 39.6187 32.3772 39.5547C32.464 39.4047 32.5726 39.2547 32.6804 39.1047C32.9616 38.7398 33.3077 38.4406 33.7194 38.1828L47.6038 30.0578C47.9007 29.8914 48.2108 29.7555 48.5343 29.6516C48.578 29.6305 48.621 29.6305 48.664 29.6078C48.9046 29.5422 49.1507 29.5 49.3991 29.4797C49.5069 29.4797 49.5937 29.4578 49.7022 29.4578H49.9835C50.3499 29.4812 50.7124 29.5445 51.0647 29.65C51.3304 29.7344 51.5843 29.8492 51.8218 29.9945L65.8577 37.8617C66.3315 38.1223 66.7565 38.463 67.114 38.8687C67.221 38.9969 67.3304 39.1476 67.4374 39.2969L67.5679 39.4891L71.1577 37.1109L76.0241 34.2172C75.3968 33.3805 74.5968 32.6305 73.6452 32.1164Z" fill="#37BF6E"/>
<path d="M67.5467 39.5328C67.6115 39.6391 67.6553 39.725 67.7193 39.8328L67.8498 40.0899C68.0318 40.5319 68.1273 41.0048 68.1311 41.4828V57.4531C68.1326 57.8893 68.0668 58.3231 67.9357 58.7391C67.9147 58.7813 67.9147 58.825 67.8928 58.8672C67.8516 58.9926 67.8012 59.1148 67.742 59.2328C67.6975 59.3383 67.6326 59.4461 67.5897 59.5531C67.5037 59.7039 67.3951 59.8531 67.2865 60.0039C67.1165 60.2191 66.9286 60.4195 66.7248 60.6031C66.5951 60.732 66.4436 60.8391 66.292 60.9469C66.2053 60.9891 66.1412 61.0539 66.0545 61.0969L52.1686 69.2203C51.5714 69.5574 50.9059 69.7555 50.2217 69.8V74.2367C50.2217 74.2367 50.2217 76.5094 50.2436 79.7031C51.3035 79.6844 52.3401 79.389 53.2506 78.8461L73.9693 66.7336C75.8951 65.5985 77.0631 63.5399 77.0412 61.3328V37.4961C77.0201 36.3383 76.6311 35.2445 75.9826 34.3016L71.1147 37.1961L67.5467 39.5328Z" fill="#4285F4"/>
<path d="M67.5467 39.5328C67.6115 39.6391 67.6553 39.725 67.7193 39.8328L67.8498 40.0899C68.0318 40.5319 68.1273 41.0048 68.1311 41.4828V57.4531C68.1326 57.8893 68.0668 58.3231 67.9357 58.7391C67.9147 58.7813 67.9147 58.825 67.8928 58.8672C67.8516 58.9926 67.8012 59.1148 67.742 59.2328C67.6975 59.3383 67.6326 59.4461 67.5897 59.5531C67.5037 59.7039 67.3951 59.8531 67.2865 60.0039C67.1165 60.2191 66.9286 60.4195 66.7248 60.6031C66.5951 60.732 66.4436 60.8391 66.292 60.9469C66.2053 60.9891 66.1412 61.0539 66.0545 61.0969L52.1686 69.2203C51.5714 69.5574 50.9059 69.7555 50.2217 69.8V74.2367C50.2217 74.2367 50.2217 76.5094 50.2436 79.7031C51.3035 79.6844 52.3401 79.389 53.2506 78.8461L73.9693 66.7336C75.8951 65.5985 77.0631 63.5399 77.0412 61.3328V37.4961C77.0201 36.3383 76.6311 35.2445 75.9826 34.3016L71.1147 37.1961L67.5467 39.5328Z" fill="#3870B2"/>
<path d="M48.5588 29.6735C48.2338 29.7594 47.9307 29.9094 47.6291 30.0797L33.7432 38.2047L47.6275 30.0813C47.9164 29.902 48.2295 29.7652 48.5572 29.675L48.5588 29.6735Z" fill="#D6F0FF"/>
<path opacity="0.1" d="M48.5588 29.6735C48.2338 29.7594 47.9307 29.9094 47.6291 30.0797L33.7432 38.2047L47.6275 30.0813C47.9164 29.902 48.2295 29.7652 48.5572 29.675L48.5588 29.6735Z" fill="black"/>
<path d="M67.8502 40.0695C67.917 40.2444 67.9744 40.4228 68.0221 40.6039C67.9791 40.4328 67.9127 40.2617 67.8486 40.0695H67.8502Z" fill="#D6F0FF"/>
<path opacity="0.1" d="M67.8502 40.0695C67.917 40.2444 67.9744 40.4228 68.0221 40.6039C67.9791 40.4328 67.9127 40.2617 67.8486 40.0695H67.8502Z" fill="black"/>
</svg>
