<svg width="100" height="100" viewBox="0 0 100 100" fill="none" xmlns="http://www.w3.org/2000/svg">
<g clip-path="url(#clip0_48_673)">
<path d="M91.9437 76.7516C86.496 76.6023 82.3366 77.1117 78.7781 78.6102C77.7679 79.0375 76.157 79.0469 75.9921 80.3133C76.5476 80.8961 76.6327 81.7656 77.0757 82.4828C77.9241 83.8531 79.3585 85.6961 80.6374 86.6641C82.0351 87.7172 83.4757 88.8461 84.9741 89.7586C87.6413 91.3852 90.6171 92.3133 93.1804 93.9398C94.6945 94.9008 96.1952 96.1094 97.6726 97.193C98.4023 97.7273 98.8937 98.5602 99.839 98.8961V98.7437C99.3413 98.1094 99.2132 97.2359 98.7554 96.5742L96.7413 94.5602C94.7726 91.9477 92.2734 89.6531 89.6187 87.7484C87.5007 86.2258 82.7585 84.1719 81.8765 81.7094L81.721 81.5539C83.2226 81.3828 84.9804 80.8398 86.3687 80.4672C88.6968 79.8445 90.7788 80.0062 93.1804 79.3836L96.4335 78.4562V77.8367C95.2187 76.5914 94.3523 74.9406 93.0281 73.8117C89.5585 70.8578 85.7741 67.9094 81.8773 65.45C79.7163 64.0859 77.046 63.1977 74.7546 62.0414C73.9827 61.6539 72.6304 61.4492 72.121 60.8023C70.9187 59.2703 70.2624 57.3266 69.3351 55.5383C67.3913 51.7937 65.4835 47.7078 63.7593 43.768C62.5843 41.0828 61.8187 38.4336 60.3538 36.0258C53.3226 24.4656 45.7546 17.4867 34.0296 10.6289C31.5335 9.17031 28.5304 8.59375 25.3562 7.83984L20.2445 7.53125C19.2038 7.09765 18.1234 5.825 17.1468 5.20547C13.2632 2.75 3.29915 -2.5875 0.421021 4.43125C-1.3946 8.85937 3.13743 13.1805 4.75774 15.4266C5.89602 16.9984 7.35149 18.7648 8.16321 20.5352C8.70071 21.7008 8.79211 22.8664 9.24993 24.0969C10.3734 27.1305 11.3554 30.432 12.8116 33.2336C13.5468 34.6523 14.3585 36.1453 15.2898 37.4148C15.8577 38.193 16.8366 38.5383 16.9929 39.7375C16.0343 41.0773 15.9796 43.1555 15.4429 44.8492C13.0226 52.482 13.9382 61.9664 17.457 67.6125C18.5374 69.3492 21.0827 73.0656 24.5796 71.6406C27.6406 70.3922 26.957 66.532 27.8327 63.1234C28.0312 62.3516 27.9093 61.7836 28.2968 61.2648V61.4203L31.0859 66.993C33.1491 70.3164 36.8077 73.7891 39.9116 76.1328C41.5202 77.3477 42.7866 79.4469 44.8679 80.1578V80.0023H44.7124C44.3093 79.3734 43.6781 79.1141 43.1656 78.6109C41.9538 77.4211 40.6054 75.9437 39.6038 74.5828C36.7812 70.7531 34.2874 66.5594 32.0171 62.1961C30.9304 60.1117 29.9874 57.8141 29.0718 55.693C28.7179 54.875 28.7241 53.6359 27.9882 53.2148C26.9874 54.768 25.5101 56.0258 24.7351 57.8594C23.4991 60.7922 23.3374 64.3719 22.8796 68.0797C22.6077 68.1773 22.7273 68.1102 22.5687 68.2352C20.4109 67.7133 19.6546 65.4945 18.8515 63.5875C16.8249 58.7719 16.4468 51.0172 18.232 45.4695C18.6929 44.0352 20.7804 39.5187 19.9351 38.1914C19.532 36.8703 18.2015 36.1039 17.457 35.0937C16.5351 33.8453 15.6171 32.2008 14.9788 30.757C13.3187 27.0031 12.5468 22.7859 10.7976 18.9898C9.96165 17.1742 8.55149 15.3367 7.39211 13.7258C6.10696 11.9375 4.67024 10.6187 3.67493 8.45859C3.32102 7.68984 2.84211 6.45937 3.36399 5.67265C3.53196 5.13828 3.76711 4.91562 4.29446 4.74219C5.19133 4.04922 7.69446 4.97422 8.62805 5.36172C11.1124 6.39297 13.1843 7.37578 15.2898 8.77031C16.2968 9.43828 17.3195 10.7328 18.5398 11.093H19.9343C22.1132 11.5937 24.5546 11.2453 26.5929 11.8648C30.1937 12.9602 33.4195 14.6633 36.3491 16.5125C45.2726 22.1492 52.5726 30.1687 57.5648 39.7422C58.3671 41.2836 58.7156 42.7516 59.4234 44.3867C60.8484 47.6828 62.646 51.0734 64.0648 54.2992C65.4835 57.5125 66.8632 60.7602 68.8679 63.4359C69.921 64.843 73.9859 65.5969 75.8351 66.3781C77.132 66.9242 79.2562 67.4953 80.4827 68.2367C82.8265 69.65 85.0968 71.3344 87.2976 72.8812C88.3929 73.6562 91.7741 75.3562 91.9421 76.7539L91.9437 76.7516ZM22.721 17.7516C21.5859 17.7305 20.7835 17.8734 19.9351 18.0602V18.2156H20.0874C20.6304 19.3266 21.5859 20.0437 22.257 21.0016L23.8038 24.2547L23.9593 24.1023C24.9179 23.425 25.357 22.3445 25.3507 20.6937C24.9663 20.2875 24.9116 19.7844 24.5757 19.2992C24.1366 18.6555 23.2788 18.2922 22.7202 17.7523L22.721 17.7516Z" fill="#00618A"/>
</g>
<defs>
<clipPath id="clip0_48_673">
<rect width="100" height="100" fill="white"/>
</clipPath>
</defs>
</svg>
