<svg width="100" height="100" viewBox="0 0 100 100" fill="none" xmlns="http://www.w3.org/2000/svg">
<path fill-rule="evenodd" clip-rule="evenodd" d="M85.6893 11.5133C76.1533 6.80781 66.3861 6.32891 56.3861 9.86406C47.1838 13.1172 39.8432 18.9383 34.3861 26.8664C25.1525 40.282 18.4455 54.9203 14.6869 70.8219C12.7619 78.9602 11.515 87.5922 11.8502 95.9969C11.8775 96.6789 11.9791 96.875 12.0463 98.4375H59.2072C59.0721 96.875 58.983 97.3313 58.8658 97.0336C56.3738 90.6491 54.4323 84.0631 53.0627 77.3477C51.1111 67.7766 50.0893 58.0281 52.1049 48.3687C54.926 34.843 62.6361 25.0836 75.6338 20.0227C82.9963 17.1578 89.9846 17.9727 96.1135 23.3523C96.1697 23.4016 96.2853 23.3719 96.4353 23.3961L98.4393 20.3625C94.5799 16.6883 90.3393 13.8086 85.6893 11.5133ZM2.60645 73.7453C2.24707 76.8102 1.91113 79.6797 1.55957 82.6914L10.2564 83.7352L11.8494 74.4438L2.60645 73.7453ZM19.6768 47.0375L11.4963 43.8367L8.85254 51.3422L17.1893 54.0141C18.033 51.6461 18.8268 49.4188 19.6768 47.0375ZM58.2854 88.9586C61.0783 89.1664 63.8768 89.3094 66.9596 89.4891C65.84 87.1617 64.8455 85.057 63.8041 82.9773C63.69 82.7516 63.3049 82.5336 63.0432 82.5297C60.6736 82.4953 58.3025 82.5102 55.7846 82.5102C56.3518 84.5633 56.8447 86.4578 57.4221 88.325C57.5088 88.607 57.9744 88.9359 58.2854 88.9586ZM33.5416 24.2992L27.3268 20.1836L22.3588 25.7344L28.7479 30.0281L33.5416 24.2992ZM53.3338 65.9938C53.3236 66.2445 53.5494 66.6438 53.7697 66.743C56.008 67.7492 58.2697 68.7078 60.7322 69.7688C60.6299 67.8219 60.5611 66.1945 60.4447 64.5703C60.4236 64.2781 60.2861 63.8578 60.0697 63.7375C58.0143 62.6 55.9299 61.5133 53.651 60.3039C53.5268 62.3859 53.4002 64.1883 53.3338 65.9938ZM51.4924 9.60938L47.2377 4.78047L41.3791 7.82578L45.6408 13.0164L51.4924 9.60938ZM54.1603 48.0281C54.033 48.3203 54.201 48.9398 54.4518 49.1656C56.151 50.6984 57.908 52.1656 59.8627 53.8383C60.3104 51.9633 60.7322 50.2922 61.09 48.6094C61.1533 48.3102 61.065 47.8156 60.8572 47.6484C59.3369 46.4227 57.7674 45.2555 56.1408 44.0148C55.426 45.4328 54.733 46.7047 54.1603 48.0281ZM63.8869 7.07187C66.0588 7.13047 68.233 7.10469 70.5268 7.10469C70.2979 5.50781 70.1885 4.29766 69.9158 3.12656C69.8346 2.77812 69.3103 2.31406 68.9564 2.28438C66.7791 2.10781 64.5932 2.03984 62.1978 1.92578C62.5174 3.5375 62.7611 4.95781 63.1057 6.35391C63.1783 6.65 63.6111 7.06406 63.8869 7.07187ZM66.5314 34.943C66.6424 34.7352 66.6705 34.3578 66.5541 34.1766C65.4869 32.507 64.3783 30.8633 63.2307 29.1336L59.5119 32.5492L64.6541 38.2477C65.3447 37.0453 65.9627 36.007 66.5314 34.943ZM70.5432 23.5938L72.7643 27.7195C76.24 25.8148 76.5729 25.1258 75.3424 22.3805L70.5432 23.5938ZM87.1736 10.8805C88.6197 11.7727 90.1471 12.5328 91.6986 13.3687L92.7377 11.7516C90.8455 10.368 89.0189 9.02969 86.9463 7.5125C86.865 8.375 86.7439 8.97734 86.7752 9.57266C86.8002 10.0266 86.876 10.6977 87.1736 10.8805ZM85.1564 23.9422C86.7189 24.1117 89.0627 24.2734 90.6252 24.4445V22.3211C89.0627 21.9789 86.7189 21.6398 85.1564 21.2875V23.9422Z" fill="#CC0000"/>
</svg>
