<svg width="100" height="100" viewBox="0 0 100 100" fill="none" xmlns="http://www.w3.org/2000/svg">
<path d="M19.5312 86.2789V74.1203H23.9187C26.3508 74.1203 30.2094 73.9617 32.5359 73.75L36.6594 73.4328L31.1609 71.9531C28.0953 71.1601 24.2359 69.9968 22.5977 69.3625L19.5312 68.2531V43.4586H24.4477C27.0906 43.4586 30.95 43.3 32.9586 43.089L36.6594 42.7718L30.157 41.0273C26.5625 40.1297 22.7562 38.9133 21.593 38.4375L19.5312 37.4859V13.4859L21.1703 13.1164C22.0687 12.9578 24.2891 12.7992 26.0867 12.7992C34.9672 12.7992 56.0602 9.89138 66.4211 7.24841C73.6633 5.34529 78.6852 3.44216 80.4297 1.85622C81.3281 1.06325 81.3812 1.53903 81.3812 13.2218V25.4328L80.1125 26.3851L78.8437 27.389L81.3812 29.6093V56.0937L80.1125 57.0453L78.8437 58.05L81.3812 60.2703V86.7547L80.0062 87.8117C78.5266 88.975 72.8172 90.9312 66.3156 92.5695C56.1656 95.107 31.3727 98.4375 22.9141 98.4375H19.5312V86.2789Z" fill="#390D09"/>
<path d="M19.5312 86.3844V74.279L28.7828 73.9086C38.4039 73.5391 45.5406 72.7461 56.007 70.9485C67.9016 68.8868 79.6367 65.1868 80.8531 63.0719C81.1703 62.543 81.3812 66.6141 81.3812 74.4907V86.7547L80.0062 87.8118C78.5266 88.9751 72.8172 90.9313 66.3156 92.5696C56.1656 95.1071 31.3727 98.4376 22.9141 98.4376H19.5312V86.3844ZM19.5312 55.7243V43.6172L28.7828 43.3001C39.0383 42.8774 47.0203 41.979 57.593 40.0227C69.4344 37.8024 80.218 34.2079 81.0117 32.2516C81.1703 31.8821 81.3289 37.0094 81.3289 43.6704C81.3812 54.243 81.2758 55.9344 80.4828 56.7797C78.6328 58.8422 64.3594 62.5422 49.6633 64.8157C40.7297 66.1907 25.9281 67.7766 21.8039 67.7766H19.5312V55.7243ZM19.5312 25.2751V13.4336L21.1703 13.1165C22.0687 12.9579 24.2891 12.7993 26.0867 12.7993C34.9672 12.7993 56.0602 9.89146 66.4211 7.24849C73.6633 5.34536 78.6852 3.44224 80.4297 1.8563C81.3281 1.06333 81.3812 1.53911 81.3812 13.1688C81.3812 24.5344 81.3289 25.3797 80.3773 26.2266C78.95 27.5477 69.1703 30.561 61.557 32.0938C49.2406 34.5258 28.7828 37.1165 21.8047 37.1165H19.5312V25.2751Z" fill="#DE3423"/>
</svg>
