<svg width="57" height="43" viewBox="0 0 57 43" fill="none" xmlns="http://www.w3.org/2000/svg">
<path d="M56.144 0.967525C53.9663 2.11052 49.6392 3.59702 47.1222 3.95927C47.0481 3.9744 46.9873 3.99564 46.9159 4.01091C44.8283 1.72393 41.8824 0.220104 38.5437 0.0451328C31.815 -0.307505 26.073 4.86264 25.7203 11.5914C25.7018 11.9461 25.6378 12.5971 25.6494 12.9452C16.5704 12.4694 9.90939 7.3525 5.27267 1.01664C4.66288 2.34227 4.3152 4.46904 4.2099 6.47818C4.01109 10.2717 6.7808 14.153 11.2764 16.7046C10.4147 16.8794 9.46962 16.9873 8.49483 16.9362C6.92163 16.8538 5.27809 16.3522 3.81948 15.016C3.81706 15.062 3.81479 15.1053 3.81224 15.154C3.53439 20.4558 8.9719 24.3601 13.9232 25.6269C12.8764 26.1721 10.8262 26.1244 9.82707 26.072C9.12305 26.0351 6.64882 25.5824 5.98925 25.4229C7.15326 29.8418 12.0454 32.5472 16.8254 32.8846C12.9295 35.6237 10.2758 36.5761 2.61286 36.1745L0.00259659 36.0377C4.68141 39.3945 10.7256 42.0328 16.9047 42.3566C37.0231 43.411 49.2615 28.6763 50.019 14.2224C50.0312 13.9895 50.0514 13.5019 50.0689 13.0113C50.0715 12.9626 50.0874 12.9173 50.09 12.8685C50.0938 12.7954 50.0759 12.7239 50.0797 12.6508C50.0909 12.2821 50.1008 11.9378 50.102 11.7587C52.322 10.3274 54.2777 8.49936 55.8602 6.383C53.8514 7.15201 51.7142 7.62648 49.488 7.7759C51.8172 6.54038 55.1951 3.48092 56.144 0.967525ZM44.6036 13.9386C44.0246 24.9862 35.4049 36.2613 20.4108 36.9525C22.5058 35.626 24.562 33.6946 24.562 33.6946C24.562 33.6946 16.8165 26.0609 16.7008 16.6115C19.4585 17.614 22.3546 18.2029 25.3656 18.3607L30.7811 18.6445L31.1358 11.8752C31.3371 8.13879 34.5231 5.26749 38.2598 5.46332C41.9992 5.65929 44.8703 8.84804 44.6744 12.5874C44.6744 12.5874 44.6148 13.7247 44.6036 13.9386Z" fill="#00A3D9"/>
</svg>
